<?xml version="1.0" standalone="no"?>
<!DOCTYPE svg PUBLIC "-//W3C//DTD SVG 20010904//EN"
 "http://www.w3.org/TR/2001/REC-SVG-20010904/DTD/svg10.dtd">
<svg version="1.0" xmlns="http://www.w3.org/2000/svg"
 width="2000.000000pt" height="2000.000000pt" viewBox="0 0 2000.000000 2000.000000"
 preserveAspectRatio="xMidYMid meet">
<metadata>
Created by potrace 1.14, written by Peter Selinger 2001-2017
</metadata>
<g transform="translate(0.000000,2000.000000) scale(0.100000,-0.100000)"
fill="#000000" stroke="none">
<path d="M9948 19927 c-195 -198 -415 -436 -548 -592 -23 -27 -49 -57 -56 -65
-7 -8 -21 -24 -31 -35 -10 -12 -45 -54 -78 -95 -33 -41 -62 -77 -66 -80 -3 -3
-52 -66 -110 -140 -196 -252 -425 -582 -574 -828 -35 -57 -68 -92 -87 -92 -3
0 -13 6 -20 13 -7 7 -60 46 -118 87 -58 41 -106 78 -108 82 -2 5 -9 8 -16 8
-7 0 -21 9 -31 20 -10 11 -22 20 -28 20 -5 0 -26 14 -47 30 -21 17 -42 30 -47
30 -6 0 -18 9 -28 20 -10 11 -23 20 -28 20 -6 0 -24 10 -41 23 -32 24 -341
212 -431 262 -191 106 -283 155 -292 155 -6 0 -13 4 -15 8 -5 12 -617 312
-637 312 -3 0 -19 7 -36 16 -37 19 -285 124 -295 124 -5 0 -51 -99 -56 -120 0
-3 -5 -16 -11 -30 -33 -77 -149 -390 -203 -545 -32 -92 -119 -358 -126 -385
-2 -8 -19 -69 -39 -135 -19 -66 -37 -129 -40 -140 -2 -11 -9 -36 -14 -55 -15
-54 -48 -182 -55 -211 l-5 -25 -146 4 c-91 2 -145 0 -145 -6 0 -5 -33 -79 -74
-164 -99 -207 -191 -401 -224 -471 l-27 -58 -40 7 c-22 3 -49 8 -60 10 -22 5
-32 6 -165 29 -104 18 -111 20 -185 29 -27 4 -61 9 -75 11 -14 3 -47 7 -75 10
-27 3 -61 8 -75 10 -34 5 -114 14 -180 20 -30 3 -73 8 -95 10 -22 3 -71 8
-110 11 -38 3 -92 7 -119 9 -156 14 -502 28 -706 29 l-185 1 1 -195 c1 -225
14 -566 28 -721 3 -35 8 -95 11 -134 3 -38 8 -90 11 -115 2 -25 7 -65 9 -90 3
-25 8 -67 11 -95 4 -27 8 -63 10 -80 3 -32 5 -53 29 -220 18 -124 20 -132 50
-300 7 -44 18 -99 21 -110 15 -66 24 -139 17 -145 -4 -5 -53 -32 -108 -60 -55
-29 -104 -56 -109 -61 -6 -5 -18 -9 -27 -9 -10 0 -19 -3 -21 -8 -1 -4 -32 -22
-68 -40 -36 -19 -110 -57 -165 -86 -55 -29 -153 -80 -218 -114 -66 -34 -151
-71 -190 -82 -40 -12 -103 -30 -142 -41 -38 -11 -77 -23 -85 -26 -8 -3 -20 -7
-27 -9 -21 -4 -88 -26 -98 -33 -5 -3 -15 -6 -22 -7 -13 -2 -263 -90 -303 -107
-14 -6 -27 -11 -30 -12 -14 -3 -122 -46 -137 -54 -10 -5 -74 -33 -143 -61
-137 -57 -420 -193 -461 -222 l-27 -18 39 -117 c46 -144 87 -261 99 -288 5
-11 23 -54 39 -95 40 -105 98 -245 110 -267 5 -10 35 -74 67 -143 61 -136 223
-452 260 -512 13 -21 24 -40 24 -43 0 -19 267 -440 416 -654 32 -47 54 -86 48
-88 -5 -2 -34 -19 -63 -38 -29 -19 -54 -35 -56 -35 -9 0 -320 -213 -323 -221
-2 -5 -8 -9 -13 -9 -8 0 -61 -37 -134 -93 -115 -88 -278 -216 -322 -254 -31
-26 -66 -55 -76 -63 -21 -17 -33 -28 -138 -121 -255 -229 -507 -487 -687 -705
l-51 -61 32 -39 c17 -21 34 -41 37 -44 3 -3 25 -30 50 -60 177 -215 625 -649
889 -860 24 -19 58 -47 75 -61 17 -14 65 -51 106 -82 41 -32 84 -65 95 -73 69
-53 240 -174 246 -174 4 0 14 -6 22 -14 7 -8 74 -52 148 -99 158 -100 188
-124 173 -134 -19 -14 -290 -410 -317 -463 -4 -8 -16 -28 -27 -45 -11 -16 -23
-37 -27 -45 -3 -8 -9 -17 -12 -20 -3 -3 -14 -18 -23 -35 -9 -16 -38 -68 -65
-115 -26 -46 -55 -97 -63 -111 -30 -53 -270 -535 -270 -542 0 -3 -13 -34 -29
-69 -66 -141 -166 -402 -237 -617 -41 -125 -43 -135 -26 -147 33 -25 340 -174
483 -234 79 -33 153 -64 164 -69 11 -5 58 -23 105 -41 47 -18 110 -42 140 -53
30 -12 57 -22 60 -22 3 -1 75 -24 160 -52 163 -54 255 -83 280 -89 74 -17 178
-49 190 -59 8 -7 49 -29 90 -49 41 -21 195 -98 341 -171 l267 -134 -14 -64
c-23 -113 -60 -315 -69 -387 -3 -25 -8 -56 -10 -70 -8 -51 -25 -186 -30 -235
-3 -27 -7 -68 -10 -90 -44 -365 -49 -1120 -9 -1376 5 -35 6 -36 54 -38 27 -1
59 -4 71 -6 89 -17 725 -24 949 -11 140 8 294 21 390 31 14 1 57 6 95 10 39 4
79 9 90 11 11 2 43 6 70 9 28 3 61 8 75 10 14 3 41 7 60 10 79 12 372 66 383
71 8 3 33 -38 65 -103 30 -60 60 -119 68 -133 7 -14 26 -50 40 -80 14 -30 31
-64 37 -75 6 -11 42 -82 80 -158 49 -99 75 -141 92 -147 17 -6 26 -22 35 -62
6 -29 20 -80 30 -113 10 -33 30 -100 45 -150 14 -49 30 -99 35 -110 5 -11 16
-42 24 -70 8 -27 30 -95 50 -150 20 -55 46 -127 58 -160 11 -33 24 -64 28 -70
4 -5 13 -28 20 -50 7 -22 16 -44 20 -50 4 -5 17 -35 28 -66 11 -30 34 -83 50
-117 17 -34 29 -62 26 -62 -2 0 39 -85 92 -189 73 -147 99 -189 112 -186 22 4
337 109 377 125 17 7 39 16 50 21 11 5 56 22 100 39 44 17 100 40 124 51 24
11 64 29 90 39 25 10 93 40 151 67 58 27 120 56 137 64 18 7 33 17 33 21 0 5
5 8 11 8 11 0 134 60 229 112 280 155 378 213 615 371 133 88 207 139 215 148
10 11 55 39 62 39 5 0 8 -5 8 -11 0 -6 17 -36 37 -67 126 -195 215 -327 265
-397 32 -44 66 -91 76 -105 21 -29 229 -295 259 -330 11 -14 40 -47 63 -75
206 -244 528 -573 740 -755 14 -12 39 -34 55 -49 17 -14 46 -39 66 -54 35 -26
37 -26 57 -10 11 10 37 32 57 48 163 133 510 468 670 649 39 43 81 91 95 106
14 15 43 49 65 76 22 26 47 55 55 64 8 9 35 43 60 75 25 33 50 65 56 70 6 6
40 48 75 95 35 47 67 90 72 95 44 54 277 390 277 399 0 2 25 41 55 87 30 46
56 88 58 93 2 5 64 -34 138 -86 175 -123 306 -208 459 -298 69 -40 136 -80
150 -89 14 -9 36 -21 49 -28 13 -7 62 -34 110 -60 167 -91 420 -213 582 -283
41 -17 83 -35 94 -40 105 -48 611 -230 639 -230 3 0 14 18 23 40 10 22 21 40
25 40 5 0 8 9 8 19 0 11 3 21 8 23 9 4 123 245 177 373 21 50 42 94 47 100 4
5 8 15 8 23 0 7 8 32 19 55 24 54 72 184 73 194 0 4 3 13 8 18 4 6 13 28 19
50 7 22 16 49 21 60 10 22 70 202 76 225 2 8 17 60 34 115 17 55 33 107 35
115 13 55 79 306 82 309 3 4 25 6 116 12 44 3 29 -18 199 274 65 110 122 206
127 214 7 11 17 12 54 3 25 -7 62 -14 84 -17 21 -4 76 -12 123 -20 130 -21
146 -23 280 -40 179 -21 207 -24 285 -30 39 -3 93 -8 120 -10 255 -23 763 -23
1050 0 22 2 59 4 83 6 24 1 45 6 48 11 8 13 21 155 30 323 7 133 7 589 0 690
-3 44 -8 123 -11 175 -3 52 -7 111 -10 130 -2 19 -7 70 -10 113 -4 42 -8 86
-10 96 -2 10 -6 42 -10 72 -3 30 -8 65 -10 79 -3 14 -7 48 -10 75 -3 28 -7 61
-10 75 -2 13 -7 42 -10 65 -3 22 -8 47 -10 55 -2 8 -7 35 -10 60 -4 25 -13 72
-20 105 -38 168 -38 191 0 213 17 9 32 19 35 22 3 3 79 53 170 110 91 57 186
119 212 137 26 18 50 33 52 33 3 0 24 13 48 29 38 25 101 47 188 65 14 3 52
13 85 22 33 9 67 17 75 19 8 2 41 10 72 20 32 9 61 17 65 17 5 0 19 5 33 10
14 5 34 11 44 14 52 10 530 166 544 176 6 6 12 8 12 5 0 -3 27 5 59 18 33 13
62 20 65 17 3 -3 6 -1 6 5 0 5 6 10 13 10 10 0 246 87 302 112 11 5 62 26 113
46 65 27 90 41 82 49 -5 5 -10 16 -10 22 0 7 -13 41 -29 76 -16 35 -43 97 -61
138 -17 41 -52 117 -76 169 -24 51 -44 95 -44 98 0 7 -223 458 -229 463 -3 3
-18 30 -34 60 -34 69 -81 154 -159 289 -34 58 -68 119 -77 136 -9 16 -18 32
-22 35 -3 3 -16 23 -29 45 -13 22 -48 77 -77 122 -29 46 -53 87 -53 93 0 5 -4
10 -8 10 -5 0 -15 12 -23 28 -8 15 -16 29 -19 32 -3 3 -23 33 -45 67 -22 35
-43 63 -47 63 -5 0 -8 5 -8 10 0 6 -41 67 -91 136 -50 69 -90 126 -88 127 6 3
35 20 114 68 78 47 334 213 351 227 5 5 30 22 55 38 24 16 49 32 54 37 6 4 83
61 171 126 158 116 343 259 376 290 9 9 29 26 45 38 15 12 38 30 49 40 12 10
46 38 75 63 64 54 130 111 227 199 108 96 131 117 314 293 l167 161 -98 96
c-178 174 -304 291 -481 447 -19 17 -60 53 -90 80 -31 27 -75 65 -99 84 -24
19 -48 40 -55 45 -11 10 -109 91 -136 112 -8 7 -44 35 -80 63 -36 28 -72 56
-80 63 -24 20 -211 159 -260 194 -93 66 -448 301 -518 343 -41 24 -81 54 -89
67 -15 22 -14 26 9 51 13 15 47 59 73 97 27 39 53 75 58 80 4 6 53 78 107 160
55 83 104 155 109 161 5 6 16 24 25 40 9 16 24 41 34 56 63 100 172 289 172
298 0 5 5 10 10 10 6 0 10 4 10 8 0 5 28 58 61 118 67 119 275 530 334 659 50
110 115 254 131 290 7 17 30 72 53 123 l40 92 -27 14 c-57 29 -598 234 -687
260 -5 2 -17 6 -25 9 -16 7 -212 71 -220 72 -3 0 -45 14 -95 30 -49 16 -94 29
-100 30 -5 1 -17 4 -25 7 -16 6 -155 47 -180 53 -41 10 -102 25 -167 43 -40
11 -73 17 -73 15 0 -3 -7 0 -15 7 -11 9 -15 32 -15 79 0 71 -6 86 -38 104 -12
7 -54 32 -94 57 -40 25 -82 50 -93 56 -11 6 -126 76 -255 156 -217 134 -235
147 -236 174 0 16 3 42 8 58 4 16 10 45 13 65 3 20 8 48 10 61 3 14 8 41 11
60 2 19 7 46 9 60 3 14 8 42 11 64 3 21 7 46 9 55 2 9 6 44 10 76 4 33 9 69
11 80 3 11 7 45 10 75 2 30 7 62 9 70 2 8 6 49 10 90 3 41 8 86 10 100 2 14 7
59 10 100 4 41 8 93 11 115 2 22 6 96 9 165 4 69 8 136 10 150 3 14 8 161 11
326 l6 302 -218 -3 c-316 -5 -584 -18 -829 -40 -27 -3 -75 -7 -105 -10 -76 -7
-148 -15 -190 -20 -19 -3 -55 -8 -80 -10 -25 -3 -63 -8 -85 -11 -22 -2 -58 -7
-80 -10 -22 -3 -65 -9 -95 -14 -30 -5 -73 -12 -95 -15 -23 -3 -52 -7 -65 -10
-14 -3 -41 -7 -60 -11 -19 -3 -55 -10 -80 -15 -25 -5 -59 -12 -75 -14 -17 -2
-30 -4 -30 -5 0 -1 -11 -3 -24 -4 -17 -2 -28 6 -42 28 -10 17 -22 36 -27 41
-5 6 -11 15 -13 21 -2 5 -35 61 -74 123 -38 62 -77 124 -86 139 -9 15 -66 108
-127 207 -62 99 -115 186 -119 193 -5 8 -30 14 -65 14 -32 1 -58 3 -58 3 0 2
-29 112 -51 195 -12 42 -15 56 -24 95 -4 17 -16 57 -27 90 -11 33 -21 70 -24
82 -2 12 -34 113 -71 225 -37 111 -68 210 -69 218 -2 8 -7 23 -13 35 -5 11
-24 61 -41 110 -17 50 -38 106 -45 125 -25 61 -38 95 -40 105 -2 6 -26 67 -54
136 -28 69 -51 130 -51 135 0 5 -7 17 -15 28 -13 17 -19 16 -137 -34 -68 -29
-146 -64 -175 -77 -29 -13 -56 -24 -60 -25 -4 0 -19 -6 -33 -14 -34 -19 -301
-144 -307 -144 -3 0 -19 -10 -36 -22 -18 -13 -33 -22 -35 -20 -4 4 -315 -156
-392 -203 -19 -11 -54 -29 -77 -40 -24 -11 -43 -23 -43 -27 0 -5 -4 -8 -10 -8
-8 0 -76 -40 -309 -180 -24 -15 -173 -111 -201 -130 -220 -148 -286 -194 -288
-202 -2 -4 -10 -8 -17 -8 -7 0 -15 -4 -17 -8 -1 -4 -24 -23 -51 -42 -53 -38
-54 -37 -94 40 -10 19 -21 39 -26 45 -12 17 -50 76 -86 135 -19 30 -36 57 -40
60 -3 3 -12 16 -19 30 -18 34 -252 367 -331 471 -163 212 -195 254 -200 259
-3 3 -24 28 -46 55 -22 28 -44 55 -50 61 -5 6 -28 32 -50 59 -57 70 -207 242
-275 315 -196 214 -404 430 -413 430 -4 0 -35 -29 -69 -63z"/>
</g>
</svg>
